<svg xmlns="http://www.w3.org/2000/svg" version="1.0" width="1150.000000pt" height="380.000000pt" viewBox="0 0 1150.000000 380.000000" preserveAspectRatio="xMidYMid meet">

<g transform="translate(0.000000,380.000000) scale(0.100000,-0.100000)" fill="#8c52ff" stroke="none">
<path d="M1482 2497 c-7 -9 -13 -78 -14 -193 l-3 -179 -230 -5 -230 -5 -3 -37 c-4 -46 -16 -56 -72 -60 -45 -3 -45 -3 -48 -43 -4 -47 -13 -55 -68 -55 -29 0 -44 -5 -48 -16 -8 -20 -8 -518 0 -538 4 -11 19 -16 44 -16 57 0 70 -8 70 -44 0 -46 10 -54 65 -58 l50 -3 3 -40 c2 -22 9 -43 15 -47 7 -4 107 -8 223 -8 232 0 230 0 236 60 3 34 5 35 48 38 56 4 70 16 70 57 0 37 12 45 71 45 l39 0 -2 578 -3 577 -101 3 c-76 2 -104 -1 -112 -11z m-17 -862 l0 -290 -225 -3 c-203 -2 -226 -1 -237 15 -17 22 -18 524 -3 554 10 18 21 19 238 17 l227 -3 0 -290z" fill="#8c52ff"/>
<path d="M2782 2498 c-17 -17 -17 -351 1 -366 7 -6 33 -12 57 -14 44 -3 45 -4 50 -43 5 -39 6 -40 50 -43 56 -4 68 -14 72 -60 l3 -37 230 -5 230 -5 0 -290 0 -290 -350 -5 -350 -5 -3 -81 c-2 -60 1 -84 11 -93 11 -8 105 -11 348 -9 l334 3 6 38 c8 49 15 55 69 59 43 3 45 5 50 38 9 54 17 60 71 60 l49 0 0 285 0 285 -44 0 c-54 0 -76 19 -76 65 0 34 0 34 -52 37 l-53 3 -11 45 -11 45 -226 3 c-125 1 -228 3 -229 5 -1 1 -4 88 -7 192 l-6 190 -100 3 c-70 2 -104 -1 -113 -10z" fill="#8c52ff"/>
<path d="M3782 2498 c-14 -14 -17 -145 -4 -166 6 -9 36 -12 113 -10 l104 3 0 90 0 90 -100 3 c-70 2 -104 -1 -113 -10z" fill="#8c52ff"/>
<path d="M6797 2504 c-4 -4 -7 -19 -7 -34 0 -41 -20 -59 -70 -62 -44 -3 -45 -4 -48 -40 -4 -46 -16 -56 -72 -60 l-45 -3 -3 -569 c-2 -449 0 -571 10 -578 17 -10 189 -10 205 0 10 6 13 99 15 388 l3 379 230 5 230 5 0 90 0 90 -230 5 -230 5 0 95 0 95 230 5 230 5 0 90 0 90 -221 3 c-121 1 -223 -1 -227 -4z" fill="#8c52ff"/>
<path d="M7327 2503 c-4 -3 -7 -264 -7 -580 l0 -573 43 0 c55 0 69 -10 76 -56 6 -38 7 -39 56 -44 49 -5 50 -6 53 -40 6 -60 4 -60 236 -60 116 0 217 4 224 9 9 5 12 31 10 92 l-3 84 -230 5 -230 5 -3 569 c-1 400 -5 573 -13 583 -12 14 -199 20 -212 6z" fill="#8c52ff"/>
<path d="M10517 2503 c-4 -3 -7 -262 -7 -573 0 -470 -2 -570 -14 -579 -9 -8 -81 -11 -237 -9 l-224 3 -3 374 c-1 261 -6 378 -14 388 -8 10 -36 13 -112 11 l-101 -3 -3 -374 c-1 -259 -6 -378 -14 -388 -8 -11 -56 -13 -237 -11 l-226 3 -3 374 c-1 261 -6 378 -14 388 -8 10 -36 13 -112 11 l-101 -3 -3 -382 -2 -383 42 0 c56 0 70 -10 77 -56 6 -38 7 -39 56 -44 49 -5 50 -6 53 -40 6 -60 4 -60 236 -60 116 0 216 4 223 8 6 4 13 25 15 47 l3 40 115 0 115 0 3 -35 c6 -60 4 -60 236 -60 116 0 216 4 223 8 6 4 13 25 15 47 l3 40 55 5 55 5 3 37 c4 46 16 56 72 60 l45 3 3 564 c1 408 -1 568 -9 577 -8 10 -39 14 -109 14 -53 0 -100 -3 -103 -7z" fill="#8c52ff"/>
<path d="M2012 2107 c-6 -6 -12 -28 -14 -47 -3 -35 -3 -35 -55 -38 -53 -3 -53 -3 -53 -37 0 -46 -22 -65 -76 -65 l-44 0 0 -285 0 -285 43 0 c55 0 69 -10 76 -56 6 -38 7 -39 56 -44 49 -5 50 -6 53 -40 2 -19 8 -41 14 -47 15 -18 668 -19 686 -1 13 13 16 145 4 165 -6 10 -92 13 -353 15 l-344 3 0 95 0 95 344 3 c261 2 347 5 353 15 14 21 9 153 -5 166 -9 7 -123 12 -353 13 l-339 3 0 95 0 95 344 3 c261 2 347 5 353 15 12 20 9 152 -4 165 -18 18 -671 17 -686 -1z" fill="#8c52ff"/>
<path d="M3782 2108 c-9 -9 -12 -99 -12 -369 0 -197 3 -364 6 -373 4 -11 19 -16 44 -16 57 0 70 -8 70 -44 0 -46 10 -54 65 -58 l50 -3 3 -40 c2 -22 9 -43 15 -47 7 -4 107 -8 223 -8 170 0 214 3 223 14 8 9 11 43 9 93 l-3 78 -225 3 c-137 1 -228 6 -235 13 -6 6 -12 148 -15 387 l-5 377 -100 3 c-70 2 -104 -1 -113 -10z" fill="#8c52ff"/>
<path d="M4787 2114 c-4 -4 -7 -22 -7 -39 0 -41 -14 -53 -70 -57 -44 -3 -45 -4 -48 -40 -4 -46 -16 -56 -72 -60 l-45 -3 0 -280 0 -280 45 -3 c56 -4 68 -14 72 -60 l3 -37 52 -3 c56 -3 58 -5 65 -72 l3 -25 230 -5 230 -5 3 -86 c2 -63 -1 -89 -11 -97 -9 -8 -103 -13 -293 -14 l-279 -3 0 -85 0 -85 288 -3 287 -2 0 28 c0 43 19 61 70 64 44 3 45 4 48 40 4 46 16 56 72 60 l45 3 3 478 2 477 -44 0 c-54 0 -76 19 -76 65 0 34 0 34 -52 37 l-53 3 -11 45 -11 45 -219 3 c-121 1 -223 -1 -227 -4z m458 -479 l0 -290 -224 -3 c-156 -2 -228 1 -237 9 -19 16 -21 548 -2 567 9 9 71 12 238 10 l225 -3 0 -290z" fill="#8c52ff"/>
<path d="M5787 2113 c-4 -3 -7 -21 -7 -38 0 -41 -14 -53 -70 -57 -45 -3 -45 -3 -48 -43 -4 -47 -13 -55 -68 -55 -29 0 -44 -5 -48 -16 -3 -9 -6 -177 -6 -374 0 -294 2 -360 14 -369 9 -8 48 -11 112 -9 l99 3 5 377 c3 248 9 381 16 388 7 7 85 9 235 8 l224 -3 3 -374 c1 -261 6 -378 14 -388 8 -10 36 -13 112 -11 l101 3 3 383 2 382 -39 0 c-57 0 -71 8 -71 40 0 49 -9 60 -50 60 -57 0 -70 8 -70 44 0 18 -5 37 -12 44 -13 13 -439 18 -451 5z" fill="#8c52ff"/>
<path d="M8327 2114 c-4 -4 -7 -22 -7 -39 0 -41 -14 -53 -70 -57 -44 -3 -45 -4 -48 -40 -4 -46 -16 -56 -72 -60 l-45 -3 0 -280 0 -280 45 -3 c56 -4 68 -14 72 -60 l3 -37 52 -3 c56 -3 58 -5 65 -72 l3 -25 225 0 225 0 6 38 c8 49 15 55 69 59 43 3 45 5 50 38 9 54 17 60 71 60 l49 0 0 285 0 285 -44 0 c-54 0 -76 19 -76 65 0 34 0 34 -52 37 l-53 3 -11 45 -11 45 -219 3 c-121 1 -223 -1 -227 -4z m458 -479 l0 -290 -224 -3 c-156 -2 -228 1 -237 9 -19 16 -21 548 -2 567 9 9 71 12 238 10 l225 -3 0 -290z" fill="#8c52ff"/>
</g>
</svg>