<?xml version="1.0" standalone="no"?>
<!DOCTYPE svg PUBLIC "-//W3C//DTD SVG 20010904//EN"
 "http://www.w3.org/TR/2001/REC-SVG-20010904/DTD/svg10.dtd">
<svg version="1.0" xmlns="http://www.w3.org/2000/svg"
 width="1150.000000pt" height="430.000000pt" viewBox="0 0 1150.000000 430.000000"
 preserveAspectRatio="xMidYMid meet">

<g transform="translate(0.000000,430.000000) scale(0.100000,-0.100000)"
fill="#000000" stroke="none">
<path d="M1477 2814 c-4 -4 -7 -87 -7 -184 0 -123 -4 -180 -12 -188 -9 -9 -75
-12 -234 -12 -221 0 -222 0 -228 -22 -3 -13 -6 -33 -6 -45 0 -19 -6 -22 -52
-25 -48 -3 -53 -5 -56 -28 -7 -67 -9 -69 -65 -72 l-52 -3 0 -290 0 -290 52 -3
c56 -3 56 -3 65 -67 2 -14 12 -21 33 -23 65 -6 75 -11 75 -40 0 -62 2 -63 250
-60 l225 3 3 35 c4 46 13 53 70 60 46 5 47 6 52 45 5 40 5 40 52 43 25 2 51 9
57 16 8 9 10 183 9 582 l-3 569 -111 3 c-60 1 -113 -1 -117 -4z m-12 -869 l0
-280 -230 0 -230 0 -3 270 c-1 148 0 275 3 283 3 10 54 12 232 10 l228 -3 0
-280z"/>
<path d="M2775 2807 c-3 -7 -4 -94 -3 -192 l3 -180 50 -5 c48 -5 50 -6 55 -40
9 -54 17 -60 71 -60 l49 0 0 -40 c0 -29 5 -42 19 -50 12 -6 105 -10 234 -10
187 0 216 -2 221 -16 8 -20 8 -518 0 -538 -5 -14 -45 -16 -343 -16 -185 0
-342 -4 -349 -8 -9 -6 -12 -33 -10 -98 l3 -89 350 0 350 0 3 35 c4 46 13 53
70 60 46 5 47 6 52 45 5 39 6 40 50 43 24 2 50 8 57 14 19 15 19 551 0 566 -7
6 -33 12 -57 14 -44 3 -45 4 -48 40 -4 46 -16 56 -72 60 -44 3 -45 4 -50 43
l-5 40 -230 5 c-126 3 -231 7 -232 8 -2 1 -4 86 -5 190 l-3 187 -113 3 c-86 2
-114 0 -117 -11z"/>
<path d="M3777 2814 c-12 -13 -8 -169 5 -182 18 -18 202 -16 217 2 8 9 11 45
9 98 l-3 83 -111 3 c-60 1 -113 -1 -117 -4z"/>
<path d="M6785 2808 c-2 -7 -5 -26 -7 -43 -3 -28 -6 -30 -48 -33 -56 -4 -68
-14 -72 -60 -3 -36 -4 -37 -48 -40 -24 -2 -50 -8 -57 -14 -10 -8 -13 -130 -13
-568 0 -307 3 -565 6 -574 5 -13 25 -16 113 -16 70 0 111 4 119 12 9 9 12 108
12 385 l0 373 218 0 c161 0 223 3 236 13 14 10 16 26 14 97 l-3 85 -230 5
-230 5 -3 93 -3 92 224 0 c181 0 227 3 236 14 8 9 11 45 9 98 l-3 83 -233 3
c-181 2 -233 0 -237 -10z"/>
<path d="M7317 2814 c-4 -4 -7 -263 -7 -574 0 -447 3 -570 13 -578 7 -6 33
-12 57 -14 44 -3 45 -4 50 -43 5 -39 6 -40 52 -45 57 -7 66 -14 70 -60 l3 -35
229 -3 c177 -2 231 1 238 10 11 18 10 150 -2 168 -8 12 -49 16 -237 20 l-228
5 -5 575 -5 575 -111 3 c-60 1 -113 -1 -117 -4z"/>
<path d="M10505 2808 c-3 -7 -6 -267 -8 -578 l-2 -565 -230 0 -230 0 -5 380
-5 380 -115 0 -115 0 -5 -380 -5 -380 -230 0 -230 0 -5 380 -5 380 -115 0
-115 0 -3 -374 c-1 -259 1 -378 9 -387 6 -7 32 -14 57 -16 47 -3 47 -3 52 -43
5 -39 6 -40 52 -45 57 -7 66 -14 70 -60 l3 -35 229 -3 c250 -3 246 -4 246 54
0 40 11 44 114 44 95 0 114 -10 118 -60 l3 -35 229 -3 c250 -3 246 -4 246 54
0 36 13 44 71 44 37 0 39 1 39 33 0 47 10 55 65 59 l50 3 0 580 0 580 -113 3
c-84 2 -114 -1 -117 -10z"/>
<path d="M2005 2418 c-2 -7 -5 -26 -7 -43 -3 -28 -6 -30 -48 -33 -56 -4 -68
-14 -72 -60 -3 -36 -4 -37 -48 -40 -24 -2 -50 -8 -57 -14 -19 -15 -19 -551 0
-566 7 -6 33 -12 57 -14 44 -3 45 -4 50 -43 5 -39 6 -40 52 -45 57 -7 66 -14
70 -60 l3 -35 350 0 350 0 3 93 c1 50 1 93 0 94 -2 1 -160 5 -353 8 l-350 5 0
85 0 85 339 3 c236 1 343 6 353 14 10 8 13 34 11 97 l-3 86 -339 3 c-236 1
-343 6 -353 14 -10 8 -13 33 -11 92 l3 81 339 3 c236 1 343 6 353 14 10 8 13
34 11 97 l-3 86 -348 3 c-273 2 -348 0 -352 -10z"/>
<path d="M3775 2418 c-3 -7 -4 -182 -3 -388 l3 -375 52 -3 c56 -3 56 -3 65
-67 2 -14 12 -21 33 -23 65 -6 75 -11 75 -40 0 -62 2 -63 250 -60 l225 3 3 93
c1 50 1 93 0 94 -2 1 -106 5 -233 8 l-230 5 -5 380 -5 380 -113 3 c-84 2 -114
-1 -117 -10z"/>
<path d="M4776 2414 c-3 -8 -6 -29 -6 -45 0 -28 -1 -29 -49 -29 -54 0 -62 -6
-71 -60 -5 -34 -7 -35 -55 -40 l-50 -5 0 -290 0 -290 53 -3 c50 -3 52 -4 52
-32 0 -49 9 -60 50 -60 56 0 70 -8 70 -40 0 -62 -8 -60 234 -60 159 0 225 -3
234 -12 12 -12 17 -134 6 -162 -5 -14 -40 -16 -290 -16 -328 0 -304 8 -304
-108 0 -47 5 -73 14 -81 9 -8 96 -11 297 -9 l284 3 3 42 c3 46 9 50 82 55 33
3 35 6 40 43 5 39 6 40 50 43 24 2 50 8 57 14 19 15 19 941 0 956 -7 6 -33 12
-57 14 -44 3 -45 4 -48 40 -4 46 -16 56 -72 60 -44 3 -45 4 -50 43 l-5 40
-231 3 c-205 2 -232 1 -238 -14z m468 -200 c3 -9 6 -130 6 -269 0 -139 -3
-260 -6 -269 -5 -14 -36 -16 -235 -16 l-229 0 0 285 0 285 229 0 c199 0 230
-2 235 -16z"/>
<path d="M5776 2408 c-3 -13 -6 -33 -6 -45 0 -19 -6 -22 -52 -25 -48 -3 -53
-5 -56 -28 -7 -67 -9 -69 -65 -72 l-52 -3 0 -385 0 -385 115 0 115 0 5 380 5
380 230 0 230 0 5 -380 5 -380 115 0 115 0 0 385 0 385 -55 5 -55 5 -3 40 c-4
47 -13 55 -69 55 -45 0 -46 1 -55 65 -3 19 -12 20 -234 23 l-232 2 -6 -22z"/>
<path d="M8316 2414 c-3 -8 -6 -29 -6 -45 0 -28 -1 -29 -49 -29 -54 0 -62 -6
-71 -60 -5 -34 -7 -35 -55 -40 l-50 -5 0 -290 0 -290 53 -3 c50 -3 52 -4 52
-32 0 -49 9 -60 50 -60 57 0 70 -8 70 -44 0 -58 -4 -57 246 -54 l229 3 3 35
c4 46 13 53 70 60 46 5 47 6 52 45 5 39 6 40 50 43 24 2 50 8 57 14 10 8 13
75 13 283 0 208 -3 275 -13 283 -7 6 -33 12 -57 14 -44 3 -45 4 -48 40 -4 46
-16 56 -72 60 -44 3 -45 4 -50 43 l-5 40 -231 3 c-205 2 -232 1 -238 -14z
m468 -200 c3 -9 6 -130 6 -269 0 -139 -3 -260 -6 -269 -5 -14 -36 -16 -235
-16 l-229 0 0 285 0 285 229 0 c199 0 230 -2 235 -16z"/>
</g>
</svg>
